<svg width="11" height="11" viewBox="0 0 11 11" fill="none" xmlns="http://www.w3.org/2000/svg">
<path d="M7.301 2.75312H8.1445L7.5662 6.01814C7.5018 6.39559 7.49974 6.66897 7.56006 6.83771C7.62038 7.00594 7.75502 7.09046 7.96372 7.09046C8.17243 7.09046 8.3773 7.04235 8.57815 6.9459C8.77895 6.84946 8.95944 6.70107 9.12028 6.50022C9.28111 6.29938 9.41144 6.04668 9.512 5.74148C9.61229 5.43633 9.66269 5.07488 9.66269 4.65695C9.66269 4.0545 9.56189 3.54036 9.36132 3.1148C9.16052 2.68924 8.88536 2.33748 8.53617 2.06054C8.18671 1.78309 7.7749 1.58051 7.30096 1.45196C6.82701 1.32342 6.31722 1.25879 5.77074 1.25879C5.14433 1.25879 4.56201 1.37129 4.02395 1.59628C3.4859 1.82156 3.01808 2.13078 2.62027 2.524C2.2227 2.91774 1.91141 3.38556 1.6867 3.92796C1.46171 4.46986 1.34944 5.05803 1.34944 5.69281C1.34944 6.31945 1.4436 6.88142 1.63223 7.37956C1.8211 7.87793 2.09621 8.3012 2.45766 8.6509C2.81906 9.00009 3.2668 9.26916 3.80079 9.45775C4.33477 9.64634 4.94742 9.74077 5.63845 9.74077C5.87107 9.74077 6.13603 9.71279 6.43332 9.65677C6.73061 9.60029 6.99964 9.51601 7.24068 9.40351L7.61407 10.5603C7.28472 10.721 6.94952 10.8332 6.6082 10.8973C6.26663 10.9617 5.87514 10.994 5.43358 10.994C4.65448 10.994 3.93341 10.8813 3.27087 10.6568C2.60811 10.4315 2.03416 10.0984 1.54823 9.65677C1.06207 9.21493 0.682608 8.66667 0.409228 8.01205C0.136409 7.35771 0 6.60051 0 5.7412C0 4.86565 0.156531 4.07434 0.470109 3.36749C0.783171 2.66121 1.20494 2.05848 1.73509 1.56011C2.26528 1.06225 2.87966 0.678949 3.57837 0.409406C4.27703 0.140612 5.01593 0.00598145 5.79503 0.00598145C6.53393 0.00598145 7.22089 0.112629 7.85539 0.325174C8.48966 0.538234 9.03993 0.843107 9.50573 1.24096C9.97154 1.63854 10.3372 2.12465 10.6025 2.69911C10.8674 3.27306 11.0001 3.92591 11.0001 4.65667C11.0001 5.17081 10.91 5.65238 10.729 6.1026C10.5482 6.55259 10.2993 6.94202 9.98221 7.27137C9.66456 7.60048 9.29525 7.86137 8.87376 8.0543C8.45227 8.24696 8.00022 8.34345 7.51842 8.34345C7.31734 8.34345 7.13104 8.32155 6.95795 8.27728C6.78536 8.23302 6.64081 8.15866 6.52448 8.0543C6.40791 7.94972 6.32162 7.81326 6.26537 7.64452C6.20912 7.476 6.19284 7.2673 6.21726 7.01811H6.16916C6.04852 7.18686 5.91819 7.35153 5.77771 7.5119C5.63695 7.67278 5.48248 7.81527 5.31374 7.93975C5.14522 8.06446 4.96019 8.16273 4.75963 8.23498C4.55855 8.307 4.33786 8.34341 4.09686 8.34341C3.9042 8.34341 3.71941 8.30115 3.54276 8.21715C3.36587 8.13264 3.21313 8.01406 3.08486 7.8616C2.95608 7.70914 2.85374 7.52434 2.77765 7.30726C2.70104 7.09041 2.66309 6.84937 2.66309 6.58441C2.66309 6.08655 2.74325 5.60245 2.90385 5.13262C3.06446 4.66251 3.2836 4.24711 3.56054 3.88571C3.83747 3.52431 4.15891 3.23338 4.52443 3.01218C4.88995 2.79149 5.27756 2.68105 5.68684 2.68105C5.96784 2.68105 6.20505 2.72303 6.39771 2.8073C6.59065 2.89182 6.76702 3.00225 6.9279 3.13894L7.301 2.75312ZM6.54179 4.21127C6.43744 4.12268 6.32901 4.0545 6.21675 4.00639C6.10425 3.95805 5.96377 3.93409 5.79498 3.93409C5.55422 3.93409 5.33124 4.00232 5.1266 4.13897C4.92173 4.27537 4.74479 4.45179 4.59641 4.66888C4.4475 4.88573 4.33323 5.12907 4.25278 5.39758C4.17262 5.66712 4.13215 5.93007 4.13215 6.18688C4.13215 6.45207 4.18638 6.6692 4.29504 6.83795C4.40347 7.00618 4.59004 7.09069 4.855 7.09069C4.96749 7.09069 5.08813 7.05658 5.2164 6.98863C5.34518 6.92017 5.46938 6.8298 5.5903 6.71731C5.7107 6.60505 5.82699 6.47626 5.93949 6.33195C6.05198 6.18711 6.15227 6.03465 6.24085 5.87405L6.54179 4.21127Z" fill="#CFB148"/>
</svg>
