<svg width="9" height="13" viewBox="0 0 9 13" fill="none" xmlns="http://www.w3.org/2000/svg">
<path fill-rule="evenodd" clip-rule="evenodd" d="M1.56967 0.142304C2.07231 -0.0926733 2.28512 0.00656922 2.81518 0.131902C2.99241 0.213752 3.12803 0.332945 3.16148 0.511822C3.35928 1.56837 3.38914 2.5023 3.34573 3.4712C3.32011 4.04654 2.51702 4.34887 2.09597 4.72078C2.17186 6.38677 3.48902 8.78258 4.83114 9.67082C5.34994 9.47557 6.00191 8.90024 6.49166 9.16454C7.31629 9.60977 8.07548 10.1038 8.8523 10.8111C8.98384 10.9308 9.01484 11.1131 8.99412 11.3143C8.83288 11.8567 8.79371 12.0782 8.36271 12.4363C4.19942 15.8952 -3.25474 2.39726 1.56967 0.142304Z" fill="#CFB148"/>
</svg>
